<?xml version="1.0" standalone="no"?>
<!DOCTYPE svg PUBLIC "-//W3C//DTD SVG 20010904//EN"
 "http://www.w3.org/TR/2001/REC-SVG-20010904/DTD/svg10.dtd">
<svg version="1.0" xmlns="http://www.w3.org/2000/svg"
 width="119.000000pt" height="181.000000pt" viewBox="0 0 119.000000 181.000000"
 preserveAspectRatio="xMidYMid meet">
<metadata>
Created by potrace 1.11, written by Peter Selinger 2001-2013
</metadata>
<g transform="translate(0.000000,181.000000) scale(0.100000,-0.100000)"
fill="#000000" stroke="none">
<path d="M504 1771 c-22 -10 -56 -37 -75 -60 -82 -95 -78 -213 12 -303 73 -73
164 -88 257 -42 63 31 101 78 118 146 47 179 -142 336 -312 259z"/>
<path d="M575 1278 c-2 -13 -11 -66 -20 -118 -8 -52 -19 -120 -25 -150 -5 -30
-19 -113 -30 -185 -11 -71 -25 -154 -31 -183 -12 -61 -10 -67 69 -152 29 -30
52 -58 52 -62 0 -21 31 -3 68 39 85 99 92 108 92 128 0 25 -18 137 -54 350 -8
50 -20 122 -27 160 -22 138 -32 180 -43 187 -22 15 -46 8 -51 -14z"/>
<path d="M377 1279 c-81 -19 -145 -66 -166 -122 -6 -16 -11 -96 -11 -178 0
-202 -19 -243 -120 -256 l-40 -6 0 -63 0 -62 32 -7 c111 -22 121 -39 128 -235
5 -131 9 -161 27 -196 45 -85 136 -134 250 -134 l53 0 0 63 0 62 -47 15 c-77
25 -87 47 -94 213 -6 153 -13 180 -66 228 -15 15 -41 33 -57 42 l-30 14 25 8
c40 12 85 52 105 92 14 30 20 69 24 180 6 158 17 189 77 207 27 8 32 15 38 55
3 25 9 56 12 69 5 21 2 22 -48 21 -30 -1 -71 -5 -92 -10z"/>
<path d="M705 1235 c9 -77 10 -79 50 -94 52 -19 62 -48 67 -201 3 -74 11 -148
17 -165 17 -42 59 -84 105 -105 37 -17 37 -18 15 -25 -41 -13 -88 -54 -111
-98 -18 -35 -22 -64 -26 -177 -3 -90 -9 -144 -19 -163 -14 -29 -65 -57 -103
-57 -18 0 -20 -6 -20 -65 l0 -65 58 0 c119 0 204 46 247 135 26 51 28 69 34
212 l6 155 31 27 c18 16 49 31 72 35 l42 6 0 65 c0 58 -2 65 -20 65 -38 0 -96
31 -113 59 -14 24 -17 55 -17 171 0 77 -5 161 -11 185 -22 89 -104 140 -243
152 l-69 6 8 -58z"/>
</g>
</svg>
